<?xml version="1.0" encoding="UTF-8" standalone="no"?>
<!-- Created with Inkscape (http://www.inkscape.org/) -->

<svg
   xmlns:dc="http://purl.org/dc/elements/1.1/"
   xmlns:cc="http://creativecommons.org/ns#"
   xmlns:rdf="http://www.w3.org/1999/02/22-rdf-syntax-ns#"
   xmlns:svg="http://www.w3.org/2000/svg"
   xmlns="http://www.w3.org/2000/svg"
   xmlns:sodipodi="http://sodipodi.sourceforge.net/DTD/sodipodi-0.dtd"
   xmlns:inkscape="http://www.inkscape.org/namespaces/inkscape"
   width="500"
   height="200"
   viewBox="0 0 499.99998 200"
   id="svg5080"
   version="1.1"
   inkscape:version="0.91 r13725"
   sodipodi:docname="btc_logo.svg">
  <defs
     id="defs5082" />
  <sodipodi:namedview
     id="base"
     pagecolor="#ffffff"
     bordercolor="#666666"
     borderopacity="1.0"
     inkscape:pageopacity="0.0"
     inkscape:pageshadow="2"
     inkscape:zoom="1.4"
     inkscape:cx="-293.456"
     inkscape:cy="-62.921929"
     inkscape:document-units="px"
     inkscape:current-layer="layer1"
     showgrid="false"
     units="px"
     showguides="true"
     inkscape:guide-bbox="true"
     inkscape:window-width="3200"
     inkscape:window-height="1671"
     inkscape:window-x="0"
     inkscape:window-y="55"
     inkscape:window-maximized="1" />
  <metadata
     id="metadata5085">
    <rdf:RDF>
      <cc:Work
         rdf:about="">
        <dc:format>image/svg+xml</dc:format>
        <dc:type
           rdf:resource="http://purl.org/dc/dcmitype/StillImage" />
        <dc:title></dc:title>
      </cc:Work>
    </rdf:RDF>
  </metadata>
  <g
     inkscape:label="Layer 1"
     inkscape:groupmode="layer"
     id="layer1"
     transform="translate(0,-852.36216)">
    <path
       d="m 75.351871,973.12927 c 1.830438,0.21495 4.030322,0.21495 7.210918,0.21495 8.45024,0 16.040684,-2.9287 16.359744,-10.61318 0.29892,-7.25458 -7.039626,-10.18328 -16.349669,-10.18328 l -6.361191,0 -0.859802,20.58151 z m 1.350158,-32.38712 6.12273,0 c 9.91795,0 15.201034,-3.57006 15.426054,-8.98413 0.2351,-5.52503 -4.423276,-8.44701 -12.863441,-8.44701 -4.161307,0 -6.498893,0.21226 -7.973319,0.43339 l -0.712024,16.99775 z m -17.316948,-27.9401 c 4.927068,-0.75569 14.754335,-1.51473 24.171854,-1.51473 11.385658,0 18.321165,0.97399 24.316275,4.11429 5.63573,2.71039 9.46453,7.69122 9.18913,14.40842 -0.26869,6.38806 -4.79608,12.3395 -14.23375,15.47966 l -0.005,0.22033 c 9.3302,2.16643 16.04404,8.55449 15.65444,17.87125 -0.27876,6.71048 -3.9262,11.91282 -9.216,15.59385 -6.17647,4.22512 -16.312723,6.60301 -32.712773,6.60301 -9.175699,0 -16.010453,-0.53738 -20.148249,-1.07798 l 2.985796,-71.69944 z"
       style="fill:#5c5d61;fill-opacity:1;fill-rule:nonzero;stroke:none"
       id="path108"
       inkscape:connector-curvature="0" />
    <path
       d="m 315.93788,979.9432 c -0.13784,3.14688 -4.40313,5.69942 -9.54515,5.69942 -5.1353,0 -9.19249,-2.55254 -9.0615,-5.69942 l 1.82708,-42.74827 c 0.13756,-3.15386 4.40648,-5.7064 9.54514,-5.7064 5.13194,0 9.19249,2.55254 9.06487,5.7064 l -1.83044,42.74827 z"
       style="fill:#5c5d61;fill-opacity:1;fill-rule:nonzero;stroke:none"
       id="path112"
       inkscape:connector-curvature="0" />
    <path
       d="m 316.38089,911.29672 0,-0.0107 -63.40032,0 0,0.0107 c -2.34094,0 -4.3729,3.09328 -4.53411,6.92208 -0.15799,3.82212 1.60877,6.91875 3.95643,6.91875 l 0,0 22.28097,0 -2.43835,54.10357 c -0.0537,0.2257 -0.094,0.45355 -0.10076,0.68865 -0.13434,3.14687 3.92621,5.69941 9.05815,5.69941 5.13866,0 9.41416,-2.55254 9.54179,-5.69941 l 0.0806,0 2.46186,-54.79222 22.51942,0 0,0 c 2.33759,0 4.37626,-3.09663 4.53747,-6.91875 0.15799,-3.8288 -1.61885,-6.92208 -3.96315,-6.92208"
       style="fill:#5c5d61;fill-opacity:1;fill-rule:nonzero;stroke:none"
       id="path116"
       inkscape:connector-curvature="0" />
    <path
       d="m 203.13289,967.81597 1.32329,-31.79252 c 0.12763,-3.14715 -3.9262,-5.70291 -9.06486,-5.70291 -5.13866,0 -9.40409,2.55576 -9.53843,5.70291 l 0,0.0403 -1.13521,27.31886 c -0.0604,1.4039 -0.35601,2.59607 -0.89003,3.56684 -1.20574,2.60278 -4.39977,5.74321 -9.54514,5.74321 -6.60637,0 -9.22944,-4.65503 -8.90701,-12.34622 l 1.02101,-24.32299 -0.005,0 c 0.13434,-3.14715 -3.92621,-5.70291 -9.06823,-5.70291 -5.13194,0 -9.40408,2.55576 -9.53507,5.70291 l -1.11841,26.92254 c -0.68851,16.35639 7.84905,23.06688 20.08444,23.06688 10.77439,0 16.63179,-5.41084 19.097,-8.66519 l 0.36609,0 0.82958,8.52735 15.82237,0 c -0.0161,-5.49467 -0.0242,-11.12369 0.26519,-18.05906"
       style="fill:#5c5d61;fill-opacity:1;fill-rule:nonzero;stroke:none"
       id="path120"
       inkscape:connector-curvature="0" />
    <path
       d="m 226.00362,952.33147 c 0.66837,-4.3326 4.12101,-10.72065 11.95662,-10.72065 8.56107,0 10.23701,6.7137 10.0758,10.72065 l -22.03242,0 z m 39.09076,4.76572 c 0.55081,-13.10849 -6.24028,-26.42198 -25.58246,-26.42198 -20.80654,0 -30.8454,14.83481 -31.40292,28.26599 -0.69188,16.56784 10.50234,26.96607 30.81852,26.96607 8.07407,0 15.58726,-1.08147 21.80403,-3.3586 l -0.005,0 c 0.047,0 0.0973,0 0.14429,-0.0269 1.88753,-0.47692 2.89175,-3.34516 2.24354,-6.40149 -0.63142,-2.92198 -2.54582,-4.9538 -4.36282,-4.70876 l 0,0 c -0.0438,0 -0.0906,0.0269 -0.13085,0.0376 -0.0438,0 -0.0838,0 -0.11769,0.0269 -0.0806,0.0269 -0.151,0.0511 -0.22489,0.0779 -4.93043,1.42754 -9.98176,2.14628 -16.1448,2.14628 -8.69877,0 -16.26905,-3.25462 -16.47729,-10.07581 l 38.55674,0 c 0.29891,-1.18894 0.76912,-3.68103 0.88331,-6.49903"
       style="fill:#5c5d61;fill-opacity:1;fill-rule:nonzero;stroke:none"
       id="path124"
       inkscape:connector-curvature="0" />
    <path
       d="m 405.32136,952.33147 c 0.665,-4.3326 4.121,-10.72065 11.95326,-10.72065 8.56443,0 10.24709,6.7137 10.0758,10.72065 l -22.02906,0 z m 39.09076,4.76572 c 0.55081,-13.10849 -6.24028,-26.42198 -25.57911,-26.42198 -20.81325,0 -30.85211,14.83481 -31.40964,28.26599 -0.69187,16.56784 10.5057,26.96607 30.82188,26.96607 8.07408,0 15.58391,-1.08147 21.80404,-3.3586 l 0,0 c 0.0403,0 0.0873,0 0.13085,-0.0269 1.8909,-0.47692 2.89848,-3.34516 2.24691,-6.40149 -0.6247,-2.92198 -2.5391,-4.9538 -4.35611,-4.70876 l -0.005,0 c -0.0435,0 -0.0806,0.0269 -0.12763,0.0376 -0.0438,0 -0.0774,0 -0.12091,0.0269 -0.0774,0.0269 -0.14778,0.0511 -0.21817,0.0779 -4.93043,1.42754 -9.98176,2.14628 -16.15152,2.14628 -8.6887,0 -16.26906,-3.25462 -16.46722,-10.07581 l 38.55003,0 c 0.29556,-1.18894 0.76912,-3.68103 0.88331,-6.49903"
       style="fill:#5c5d61;fill-opacity:1;fill-rule:nonzero;stroke:none"
       id="path128"
       inkscape:connector-curvature="0" />
    <path
       d="m 134.16366,897.57549 c -5.1353,0 -9.40744,2.5559 -9.54514,5.70291 l -3.20075,76.89185 c -0.13112,3.15036 3.92621,5.7029 9.06151,5.7029 5.14202,0 9.40744,-2.55254 9.53843,-5.7029 l 3.21082,-76.89185 c 0.13112,-3.14701 -3.92621,-5.70291 -9.06487,-5.70291"
       style="fill:#5c5d61;fill-opacity:1;fill-rule:nonzero;stroke:none"
       id="path132"
       inkscape:connector-curvature="0" />
    <path
       d="m 364.3098,961.21188 c -0.0537,1.30314 -0.22839,2.59956 -0.5273,3.79522 -1.29642,4.65153 -5.83725,7.90266 -11.21773,7.90266 -7.71471,0 -12.49736,-5.62902 -12.12455,-14.62335 0.34929,-8.33605 4.91363,-15.05326 13.48142,-15.05326 5.74657,0 9.63583,3.68452 10.5628,8.01712 0.1983,0.9705 0.1545,2.16616 0.11769,3.02946 l -0.2922,6.93215 z m 18.27751,7.79867 2.85817,-65.936 c 0.13112,-3.14701 -3.92285,-5.69619 -9.05815,-5.69619 -5.13194,0 -9.40073,2.54918 -9.53171,5.69619 l -0.0107,0 -1.50465,33.44839 -0.25176,0 c -2.54247,-3.57355 -8.07072,-5.95494 -15.53018,-5.95494 -14.32443,0 -27.36252,10.39152 -27.98722,28.26599 -0.68516,16.46037 10.24709,27.1778 24.44726,27.1778 7.7147,0 15.18423,-3.03295 19.097,-8.87691 l 0.36945,0 1.63228,8.50747 15.2682,0 c -0.0605,-4.39305 -0.0403,-10.67041 0.20152,-16.6318"
       style="fill:#5c5d61;fill-opacity:1;fill-rule:nonzero;stroke:none"
       id="path136"
       inkscape:connector-curvature="0" />
    <path
       d="m 152.82978,1016.0455 -4.10421,-18.0862 4.94722,0 1.23596,7.4596 c 0.36609,2.1495 0.69523,4.4803 0.94713,6.3074 l 0.0639,0 c 0.41647,-1.9614 0.99415,-4.1346 1.5987,-6.3612 l 2.03867,-7.4058 4.91363,0 1.31993,7.6208 c 0.37281,2.1191 0.62134,4.0505 0.83965,6.0621 l 0.064,0 c 0.38624,-2.0116 0.93033,-4.1311 1.4442,-6.2771 l 1.97486,-7.4058 4.7054,0 -6.03541,18.0862 -5.00431,0 -1.4039,-7.782 c -0.31571,-1.8236 -0.58104,-3.5131 -0.73889,-5.582 l -0.0605,0 c -0.45005,2.042 -0.85308,3.7584 -1.41733,5.582 l -2.26369,7.782 -5.06477,0 z"
       style="fill:#5c5d61;fill-opacity:1;fill-rule:nonzero;stroke:none"
       id="path140"
       inkscape:connector-curvature="0" />
    <path
       d="m 183.74267,1007.9964 c 0.0403,-0.9942 -0.37281,-2.66 -2.49545,-2.66 -1.94127,0 -2.79771,1.5584 -2.96564,2.66 l 5.46109,0 z m -5.54506,2.7876 c 0.0806,1.6928 1.92784,2.4956 4.08071,2.4956 1.57854,0 2.86152,-0.1854 4.11764,-0.5341 l 0.49372,2.7607 c -1.5416,0.5374 -3.40227,0.8061 -5.40735,0.8061 -5.03455,0 -7.80875,-2.5759 -7.63746,-6.6801 0.13757,-3.3251 2.62642,-7.0029 7.78524,-7.0029 4.79272,0 6.47874,3.3017 6.34439,6.5461 -0.0301,0.6986 -0.14778,1.3166 -0.22516,1.6086 l -9.55186,0 z"
       style="fill:#5c5d61;fill-opacity:1;fill-rule:nonzero;stroke:none"
       id="path144"
       inkscape:connector-curvature="0" />
    <path
       d="m 194.67795,1010.4648 c -0.0108,0.2687 0.0108,0.507 0.064,0.722 0.25847,1.1016 1.28298,1.9345 2.61971,1.9345 1.97485,0 3.2444,-1.3434 3.3418,-3.7044 0.0838,-2.0388 -0.88331,-3.6474 -3.03617,-3.6474 -1.24268,0 -2.42827,0.8329 -2.78092,2.0117 -0.0774,0.2418 -0.11742,0.4836 -0.12763,0.7523 l -0.0806,1.9313 z m -4.96401,5.582 c 0.0973,-0.8598 0.22516,-2.4418 0.28212,-3.9196 l 0.63477,-15.1304 4.61136,0 -0.3157,7.483 0.0639,0 c 0.92698,-1.1253 2.50552,-1.8507 4.5677,-1.8507 3.55004,0 6.04884,2.603 5.85068,6.6266 -0.19479,4.7222 -3.6911,7.0832 -7.09,7.0832 -1.72968,0 -3.3754,-0.5608 -4.36954,-2.1192 l -0.0605,0 -0.25848,1.8271 -3.91612,0 z"
       style="fill:#5c5d61;fill-opacity:1;fill-rule:nonzero;stroke:none"
       id="path148"
       inkscape:connector-curvature="0" />
    <path
       d="m 228.08023,1015.5355 c -0.86652,0.3762 -2.79099,0.776 -5.27972,0.776 -7.06985,0 -10.54601,-3.8893 -10.33106,-9.0414 0.25526,-6.1699 5.37377,-9.6056 11.56367,-9.6056 2.39468,0 4.20161,0.4299 5.00096,0.8061 l -1.07476,3.2476 c -0.92697,-0.3493 -2.21667,-0.6717 -3.85903,-0.6717 -3.66759,0 -6.59965,1.9614 -6.76758,5.9818 -0.15127,3.6238 2.17973,5.9044 6.30745,5.9044 1.39382,0 2.95221,-0.2687 3.87583,-0.5911 l 0.56424,3.1939 z"
       style="fill:#5c5d61;fill-opacity:1;fill-rule:nonzero;stroke:none"
       id="path152"
       inkscape:connector-curvature="0" />
    <path
       d="m 233.9447,1009.471 c -0.094,2.2534 0.89675,3.9429 2.86825,3.9429 1.79013,0 3.0093,-1.582 3.1067,-3.9429 0.0838,-1.9582 -0.68515,-3.943 -2.78092,-3.943 -2.21332,0 -3.11342,2.0116 -3.19403,3.943 m 10.74416,-0.1344 c -0.19829,4.8028 -4.14452,7.0026 -8.11773,7.0026 -4.33932,0 -7.57365,-2.5222 -7.39564,-6.7608 0.17814,-4.2385 3.44256,-6.9491 8.20842,-6.9491 4.5509,0 7.46952,2.7643 7.30495,6.7073"
       style="fill:#5c5d61;fill-opacity:1;fill-rule:nonzero;stroke:none"
       id="path156"
       inkscape:connector-curvature="0" />
    <path
       d="m 247.02475,1007.1095 c 0.0707,-1.6356 0.0707,-3.0295 0.0537,-4.1849 l 4.00345,0 0.13757,1.8002 0.0906,0 c 0.64485,-0.8329 2.21332,-2.0957 4.67181,-2.0957 3.02946,0 5.2327,1.7701 5.07149,5.6357 l -0.32242,7.782 -4.61136,0 0.30227,-7.2747 c 0.0672,-1.6895 -0.54745,-2.8414 -2.21668,-2.8414 -1.27291,0 -2.0689,0.7792 -2.39804,1.528 -0.13085,0.2419 -0.21495,0.6449 -0.22838,1.0211 l -0.31235,7.567 -4.61136,0 0.36944,-8.9373 z"
       style="fill:#5c5d61;fill-opacity:1;fill-rule:nonzero;stroke:none"
       id="path160"
       inkscape:connector-curvature="0" />
    <path
       d="m 263.9427,1012.4768 c 0.82957,0.4535 2.56933,0.9909 3.93292,0.9909 1.39382,0 1.99165,-0.4299 2.01516,-1.0984 0.0304,-0.6717 -0.41311,-0.9942 -2.11928,-1.5012 -3.0261,-0.9135 -4.14787,-2.3881 -4.05383,-3.9465 0.10076,-2.4415 2.54582,-4.2923 6.21677,-4.2923 1.72968,0 3.26456,0.3493 4.15459,0.7524 l -0.93369,2.8145 c -0.65492,-0.319 -1.91104,-0.7489 -3.18731,-0.7489 -1.12177,0 -1.77334,0.4031 -1.80021,1.0748 -0.0269,0.6145 0.53738,0.9369 2.32751,1.5012 2.791,0.8565 3.91949,2.1194 3.87247,4.0504 -0.10398,2.4419 -2.36446,4.2386 -6.60973,4.2386 -1.94127,0 -3.65752,-0.3762 -4.75578,-0.9101 l 0.94041,-2.9254 z"
       style="fill:#5c5d61;fill-opacity:1;fill-rule:nonzero;stroke:none"
       id="path164"
       inkscape:connector-curvature="0" />
    <path
       d="m 290.5425,1011.8325 c -0.0707,1.7161 -0.0707,3.1132 -0.0503,4.2116 l -4.00681,0 -0.13434,-1.8507 -0.0906,0 c -0.61126,0.8029 -2.06218,2.1463 -4.73227,2.1463 -3.00259,0 -5.14873,-1.6626 -4.9808,-5.7131 l 0.32242,-7.7012 4.64159,0 -0.2922,7.0563 c -0.0838,1.9045 0.57096,3.0564 2.17637,3.0564 1.27291,0 2.03532,-0.7757 2.36446,-1.4206 0.13085,-0.2418 0.17465,-0.5642 0.18808,-0.8867 l 0.32579,-7.8054 4.63822,0 -0.36944,8.9071 z"
       style="fill:#5c5d61;fill-opacity:1;fill-rule:nonzero;stroke:none"
       id="path168"
       inkscape:connector-curvature="0" />
    <path
       d="m 294.2551,996.9958 4.61136,0 -0.79599,19.0499 -4.61136,0 0.79599,-19.0499 z"
       style="fill:#5c5d61;fill-opacity:1;fill-rule:nonzero;stroke:none"
       id="path172"
       inkscape:connector-curvature="0" />
    <path
       d="m 307.05674,999.1686 -0.15772,3.7585 3.30487,0 -0.12441,3.0025 -3.30486,0 -0.19829,4.7491 c -0.064,1.5818 0.32578,2.3072 1.72296,2.3072 0.57432,0 1.03445,-0.054 1.37031,-0.1074 l -0.0975,3.0866 c -0.61799,0.215 -1.71625,0.3458 -3.01939,0.3458 -1.48786,0 -2.71039,-0.4532 -3.41234,-1.125 -0.81614,-0.7791 -1.18894,-2.0388 -1.10833,-3.8892 l 0.22166,-5.3671 -1.97485,0 0.12762,-3.0025 1.9715,0 0.12091,-2.8481 4.55762,-0.9104 z"
       style="fill:#5c5d61;fill-opacity:1;fill-rule:nonzero;stroke:none"
       id="path176"
       inkscape:connector-curvature="0" />
    <path
       d="m 317.1883,999.2769 c -0.0503,1.125 -1.0546,2.0353 -2.57605,2.0353 -1.45427,0 -2.39132,-0.9103 -2.31072,-2.0353 0.0188,-1.1822 1.02774,-2.0656 2.51224,-2.0656 1.48786,0 2.39132,0.8834 2.37453,2.0656 m -5.4678,16.7694 0.54745,-13.1219 4.61136,0 -0.54745,13.1219 -4.61136,0 z"
       style="fill:#5c5d61;fill-opacity:1;fill-rule:nonzero;stroke:none"
       id="path180"
       inkscape:connector-curvature="0" />
    <path
       d="m 319.79893,1007.1095 c 0.0707,-1.6356 0.0707,-3.0295 0.0537,-4.1849 l 4.00346,0 0.13783,1.8002 0.0905,0 c 0.64485,-0.8329 2.21332,-2.0957 4.67182,-2.0957 3.02945,0 5.2327,1.7701 5.07148,5.6357 l -0.32242,7.782 -4.61136,0 0.30227,-7.2747 c 0.0672,-1.6895 -0.54745,-2.8414 -2.21667,-2.8414 -1.27291,0 -2.0689,0.7792 -2.39805,1.528 -0.13085,0.2419 -0.21495,0.6449 -0.22838,1.0211 l -0.31235,7.567 -4.61136,0 0.36945,-8.9373 z"
       style="fill:#5c5d61;fill-opacity:1;fill-rule:nonzero;stroke:none"
       id="path184"
       inkscape:connector-curvature="0" />
    <path
       d="m 346.35606,1008.2637 c 0.0134,-0.2687 -0.005,-0.5373 -0.0605,-0.7523 -0.28884,-1.0712 -1.1352,-1.7967 -2.40811,-1.7967 -1.66923,0 -3.08992,1.3399 -3.19403,3.7313 -0.0774,1.9582 0.95048,3.4862 2.89175,3.4862 1.17887,0 2.14951,-0.6951 2.49544,-1.6624 0.13435,-0.2955 0.18137,-0.7254 0.19829,-1.0747 l 0.0774,-1.9314 z m 4.95729,-5.3366 c -0.0973,0.8294 -0.20151,1.931 -0.28212,3.8892 l -0.30563,7.325 c -0.10425,2.5189 -0.77248,4.5878 -2.48872,5.9012 -1.69274,1.236 -3.92285,1.6086 -6.1093,1.6086 -1.94127,0 -3.98666,-0.3458 -5.29652,-1.0175 l 1.03781,-3.0867 c 0.92026,0.4836 2.53911,0.9942 4.26879,0.9942 2.18644,0 3.89261,-1.0479 3.99673,-3.4626 l 0.0336,-0.8598 -0.057,0 c -0.92697,1.1016 -2.37788,1.7196 -4.07734,1.7196 -3.67095,0 -6.17311,-2.6299 -6.01525,-6.415 0.17787,-4.2116 3.38547,-6.8953 7.02619,-6.8953 2.03196,0 3.27128,0.7792 3.9833,1.854 l 0.0637,0 0.21495,-1.5549 4.00681,0 z"
       style="fill:#5c5d61;fill-opacity:1;fill-rule:nonzero;stroke:none"
       id="path188"
       inkscape:connector-curvature="0" />
    <path
       d="m 58.972322,872.93376 c -0.154496,-0.003 -0.308991,0.0108 -0.45677,0.0336 l 0,-0.0336 -38.234317,0 -6.918719,158.14294 39.084044,0 0,0 c 2.901831,-0.035 5.316666,-4.0706 5.417424,-9.1085 0.100758,-5.0917 -2.206601,-9.263 -5.155453,-9.32 -0.09055,0 -0.171155,0 -0.261971,0.027 l 0,0 -19.641101,0 5.222625,-121.24902 20.487468,0 0,-0.0505 c 0.03036,0 0.06717,0.0107 0.09727,0.0107 2.945494,0.0572 5.417424,-4.02025 5.514824,-9.11189 0.09726,-5.09164 -2.20996,-9.26302 -5.155453,-9.32347"
       style="fill:#0082c3;fill-opacity:1;fill-rule:nonzero;stroke:none"
       id="path192"
       inkscape:connector-curvature="0" />
    <path
       d="m 447.91412,872.93376 c 0.15799,-0.003 0.30899,0.0108 0.46013,0.0336 l 0,-0.0336 38.23431,0 -6.63323,158.14294 -39.08741,0 0,0 c -2.89847,-0.035 -4.97073,-4.0706 -4.63487,-9.1085 0.33922,-5.0917 3.00259,-9.263 5.95144,-9.32 0.0873,0 0.17788,0 0.25848,0.027 l 0,0 19.64782,0 5.17225,-121.24888 -20.49419,0 0.005,-0.0505 c -0.0336,0 -0.0707,0.0107 -0.0973,0.0107 -2.95557,0.0572 -5.07485,-4.02024 -4.73563,-9.11188 0.33586,-5.09164 3.00595,-9.26303 5.95144,-9.32348"
       style="fill:#00a9a2;fill-opacity:1;fill-rule:nonzero;stroke:none"
       id="path196"
       inkscape:connector-curvature="0" />
  </g>
</svg>
